<svg id="svg" version="1.1" xmlns="http://www.w3.org/2000/svg" xmlns:xlink="http://www.w3.org/1999/xlink" width="400" height="284" viewBox="0, 0, 400,284"><g id="svgg"><path id="path0" d="M189.125 10.769 C 184.253 11.040,180.343 11.646,169.875 13.751 C 165.484 14.634,153.609 18.545,148.250 20.873 C 144.262 22.606,134.715 27.458,133.253 28.497 C 132.907 28.742,132.063 29.254,131.375 29.635 C 129.318 30.776,125.098 33.647,121.837 36.125 C 120.932 36.813,119.988 37.493,119.741 37.638 C 118.156 38.563,109.284 46.494,105.730 50.161 C 97.743 58.405,90.006 68.682,85.617 76.875 C 85.175 77.700,84.488 78.938,84.089 79.625 C 82.490 82.386,77.489 93.071,77.504 93.695 C 77.507 93.794,76.898 95.506,76.151 97.500 C 74.477 101.969,72.692 107.937,71.889 111.750 C 71.556 113.331,71.061 115.638,70.790 116.875 C 67.812 130.457,67.812 153.543,70.790 167.125 C 71.061 168.363,71.556 170.669,71.889 172.250 C 72.692 176.063,74.477 182.031,76.151 186.500 C 76.898 188.494,77.507 190.206,77.504 190.305 C 77.489 190.929,82.490 201.614,84.089 204.375 C 84.488 205.063,85.175 206.300,85.617 207.125 C 90.006 215.318,97.743 225.595,105.730 233.839 C 109.284 237.506,118.156 245.437,119.741 246.362 C 119.988 246.507,120.932 247.188,121.837 247.875 C 125.098 250.353,129.318 253.224,131.375 254.365 C 132.063 254.746,132.907 255.258,133.253 255.503 C 134.715 256.542,144.262 261.394,148.250 263.127 C 150.348 264.038,152.126 264.705,157.750 266.691 C 160.866 267.791,167.861 269.844,169.875 270.249 C 183.814 273.052,187.885 273.490,200.000 273.490 C 212.115 273.490,216.186 273.052,230.125 270.249 C 231.989 269.874,239.023 267.824,241.875 266.825 C 243.250 266.343,245.492 265.558,246.858 265.080 C 248.224 264.602,249.968 263.898,250.733 263.515 C 251.499 263.132,252.550 262.681,253.069 262.513 C 254.469 262.059,265.396 256.463,266.727 255.518 C 267.083 255.265,267.938 254.746,268.625 254.365 C 270.663 253.235,274.823 250.407,278.172 247.875 C 279.081 247.188,280.296 246.287,280.873 245.875 C 291.994 237.914,307.488 219.997,314.383 207.125 C 314.825 206.300,315.512 205.063,315.911 204.375 C 317.510 201.614,322.511 190.929,322.496 190.305 C 322.493 190.206,323.102 188.494,323.849 186.500 C 325.389 182.389,327.324 176.038,327.887 173.250 C 328.095 172.219,328.590 169.912,328.987 168.125 C 332.301 153.205,332.301 130.795,328.987 115.875 C 328.590 114.088,328.095 111.781,327.887 110.750 C 327.324 107.962,325.389 101.611,323.849 97.500 C 323.102 95.506,322.493 93.794,322.496 93.695 C 322.511 93.071,317.510 82.386,315.911 79.625 C 315.512 78.938,314.825 77.700,314.383 76.875 C 307.488 64.003,291.994 46.086,280.873 38.125 C 280.296 37.712,279.081 36.813,278.172 36.125 C 274.823 33.593,270.663 30.765,268.625 29.635 C 267.938 29.254,267.093 28.742,266.747 28.497 C 265.285 27.458,255.738 22.606,251.750 20.873 C 249.652 19.962,247.874 19.295,242.250 17.309 C 239.134 16.209,232.139 14.156,230.125 13.751 C 219.362 11.586,215.910 11.067,210.182 10.749 C 205.230 10.474,194.251 10.485,189.125 10.769 M211.750 28.114 C 222.614 29.460,229.818 31.080,238.250 34.072 C 243.901 36.077,251.695 39.581,255.157 41.673 C 256.137 42.265,257.030 42.750,257.142 42.750 C 257.319 42.750,258.743 43.628,262.250 45.897 C 266.334 48.540,270.769 51.882,275.013 55.513 C 276.740 56.991,284.664 64.833,285.864 66.251 C 286.271 66.732,287.126 67.744,287.765 68.500 C 296.895 79.310,303.944 91.992,308.749 106.250 C 309.829 109.455,311.759 116.547,311.995 118.181 C 312.110 118.975,312.492 121.256,312.844 123.250 C 315.005 135.486,315.005 148.514,312.844 160.750 C 312.492 162.744,312.110 165.025,311.995 165.819 C 311.759 167.453,309.829 174.545,308.749 177.750 C 303.950 191.990,296.883 204.703,287.765 215.500 C 287.126 216.256,286.271 217.268,285.864 217.749 C 284.664 219.167,276.740 227.009,275.013 228.487 C 270.769 232.118,266.334 235.460,262.250 238.103 C 258.743 240.372,257.319 241.250,257.142 241.250 C 257.030 241.250,256.137 241.735,255.157 242.327 C 251.687 244.423,243.904 247.921,238.250 249.924 C 229.704 252.952,222.812 254.498,211.500 255.924 C 206.727 256.526,193.273 256.526,188.500 255.924 C 177.190 254.498,170.237 252.940,161.750 249.928 C 156.099 247.923,148.305 244.419,144.843 242.327 C 143.863 241.735,142.970 241.250,142.858 241.250 C 142.681 241.250,141.257 240.372,137.750 238.103 C 133.666 235.460,129.231 232.118,124.987 228.487 C 123.335 227.073,115.444 219.275,114.119 217.747 C 103.644 205.666,96.372 192.946,91.251 177.750 C 90.171 174.545,88.241 167.453,88.005 165.819 C 87.890 165.025,87.508 162.744,87.156 160.750 C 85.891 153.585,85.637 150.449,85.637 142.000 C 85.637 133.551,85.891 130.415,87.156 123.250 C 87.508 121.256,87.890 118.975,88.005 118.181 C 88.241 116.547,90.171 109.455,91.251 106.250 C 96.372 91.054,103.644 78.334,114.119 66.253 C 115.444 64.725,123.335 56.927,124.987 55.513 C 129.231 51.882,133.666 48.540,137.750 45.897 C 141.257 43.628,142.681 42.750,142.858 42.750 C 142.970 42.750,143.863 42.265,144.843 41.673 C 146.637 40.589,151.101 38.417,155.500 36.488 C 160.484 34.303,167.363 32.091,174.961 30.231 C 177.961 29.496,186.710 28.213,191.750 27.767 C 195.540 27.433,207.991 27.649,211.750 28.114 M204.349 52.917 C 202.439 54.660,198.794 58.001,196.250 60.344 C 193.706 62.686,191.574 64.640,191.511 64.686 C 191.244 64.882,192.344 66.197,195.886 69.921 C 197.955 72.096,201.384 75.731,203.507 78.000 C 205.631 80.269,207.482 82.146,207.621 82.171 C 207.834 82.210,219.382 69.734,220.852 67.878 L 221.329 67.275 220.227 65.847 C 219.621 65.062,218.731 63.878,218.250 63.217 C 217.769 62.555,217.083 61.645,216.727 61.194 C 215.881 60.125,211.091 53.722,210.125 52.369 C 209.258 51.154,208.080 49.750,207.928 49.750 C 207.871 49.750,206.260 51.175,204.349 52.917 M237.652 69.677 C 237.453 69.923,236.702 70.856,235.984 71.750 C 230.994 77.960,224.588 82.642,217.625 85.169 C 208.627 88.434,195.642 85.786,186.875 78.900 C 186.325 78.468,185.425 77.807,184.875 77.430 C 183.676 76.611,178.968 72.305,177.639 70.813 C 176.150 69.142,175.885 69.439,176.856 71.688 C 185.493 91.684,197.957 103.760,212.682 106.400 C 220.500 107.802,233.229 106.153,240.916 102.743 C 242.456 102.059,243.782 101.500,243.861 101.500 C 244.181 101.500,249.447 98.128,250.448 97.282 C 255.316 93.167,255.606 92.732,254.438 91.305 C 253.991 90.759,252.838 89.214,251.875 87.871 C 250.912 86.528,249.674 84.855,249.122 84.152 C 248.571 83.450,247.905 82.541,247.643 82.133 C 247.382 81.725,246.708 80.809,246.146 80.096 C 245.585 79.384,244.506 77.942,243.750 76.892 C 242.994 75.842,241.925 74.413,241.375 73.716 C 240.825 73.019,240.150 72.085,239.875 71.641 C 238.719 69.775,238.050 69.184,237.652 69.677 M154.375 84.625 C 150.897 85.191,147.178 86.194,144.610 87.258 C 143.243 87.825,141.731 88.434,141.250 88.613 C 135.396 90.787,124.819 98.094,116.563 105.668 C 113.805 108.198,113.836 107.946,115.905 111.101 C 118.590 115.195,121.424 119.548,124.384 124.125 C 125.185 125.362,126.241 126.966,126.732 127.688 C 127.223 128.410,127.796 129.310,128.006 129.688 C 128.215 130.066,128.984 131.256,129.714 132.332 L 131.042 134.290 132.083 132.874 C 135.524 128.199,141.870 122.203,145.458 120.237 C 145.962 119.960,146.938 119.385,147.625 118.959 C 148.839 118.206,150.659 117.385,154.000 116.084 C 160.359 113.605,171.574 113.505,176.269 115.885 C 181.870 118.723,183.351 125.603,179.549 131.125 C 175.630 136.817,165.758 139.727,154.063 138.640 C 151.508 138.402,151.566 137.834,153.372 145.375 C 156.465 158.289,157.487 162.678,157.639 163.705 C 157.748 164.438,157.903 164.745,158.121 164.661 C 163.685 162.526,173.373 162.154,178.286 163.888 C 187.084 166.992,193.113 177.444,191.258 186.375 C 189.391 195.364,181.703 202.424,171.875 204.176 C 166.619 205.112,157.622 205.173,152.625 204.306 C 150.838 203.995,148.981 203.678,148.500 203.599 C 137.052 201.738,120.050 190.410,110.875 178.530 C 109.775 177.106,108.529 175.516,108.105 174.998 C 106.762 173.352,102.292 166.449,100.742 163.625 C 99.191 160.801,99.217 161.476,100.845 166.289 C 103.320 173.610,106.719 181.316,110.146 187.375 C 110.923 188.750,111.811 190.325,112.118 190.875 C 112.596 191.732,114.907 195.272,117.302 198.816 C 121.957 205.703,131.760 215.652,138.006 219.828 C 138.759 220.331,139.769 221.007,140.250 221.331 C 143.463 223.490,149.774 226.728,153.000 227.871 C 153.894 228.188,155.469 228.748,156.500 229.114 C 167.571 233.050,180.339 230.987,190.173 223.674 C 190.834 223.182,191.886 222.395,192.511 221.925 C 206.365 211.498,210.602 187.526,202.087 167.750 L 201.711 166.875 202.918 168.028 C 213.081 177.739,228.413 176.777,237.813 165.839 C 240.461 162.758,244.505 156.313,245.143 154.158 C 245.488 152.990,248.397 146.771,249.368 145.125 C 249.935 144.162,250.469 143.193,250.554 142.971 C 250.639 142.749,251.304 141.737,252.032 140.721 C 260.541 128.850,270.174 124.650,278.830 129.037 C 289.309 134.349,293.518 149.629,288.747 165.039 C 288.336 166.367,288.000 167.574,288.000 167.721 C 288.000 170.387,279.942 182.748,276.506 185.353 C 276.159 185.617,275.481 186.204,275.000 186.658 C 271.893 189.590,265.360 193.456,260.625 195.163 C 256.118 196.788,245.180 196.786,240.606 195.159 C 232.931 192.430,225.990 187.143,220.907 180.157 C 219.807 178.646,219.663 179.252,219.818 184.722 C 220.179 197.456,224.565 204.905,236.075 212.335 C 237.980 213.564,241.963 215.540,244.375 216.451 C 251.869 219.283,262.454 218.673,270.155 214.965 C 273.934 213.146,279.029 209.390,283.332 205.250 C 287.006 201.716,293.250 194.250,293.250 193.391 C 293.250 193.294,293.610 192.692,294.050 192.053 C 295.605 189.792,298.068 184.351,299.505 180.000 C 300.886 175.821,301.179 174.445,302.037 168.125 C 302.439 165.170,302.358 157.621,301.889 154.250 C 301.669 152.669,301.375 150.501,301.236 149.432 C 300.716 145.439,298.662 138.762,296.891 135.307 C 296.263 134.083,295.750 133.013,295.750 132.929 C 295.750 132.137,291.219 125.441,288.217 121.797 C 277.755 109.098,262.835 103.092,247.956 105.589 C 238.135 107.237,227.195 118.305,223.995 129.831 C 223.309 132.299,221.752 138.162,221.464 139.358 C 219.749 146.480,212.371 155.503,206.374 157.811 C 201.550 159.668,194.437 158.226,189.378 154.364 C 185.741 151.588,182.456 150.092,179.412 149.824 C 178.064 149.705,177.798 149.619,178.162 149.419 C 180.489 148.143,185.905 143.174,188.022 140.375 C 197.262 128.159,196.054 115.887,183.953 99.020 C 182.895 97.546,177.590 92.230,176.356 91.408 C 175.816 91.048,174.813 90.355,174.125 89.868 C 170.110 87.023,158.840 83.457,156.447 84.275 C 156.408 84.288,155.475 84.446,154.375 84.625 " stroke="none" fill="#ffffff" fill-rule="evenodd"></path><path id="path1" d="" stroke="none" fill="#100fcfc" fill-rule="evenodd"></path><path id="path2" d="" stroke="none" fill="#100fcfc" fill-rule="evenodd"></path><path id="path3" d="" stroke="none" fill="#100fcfc" fill-rule="evenodd"></path><path id="path4" d="" stroke="none" fill="#100fcfc" fill-rule="evenodd"></path></g></svg>